<?xml version="1.0" encoding="utf-8" ?>
<svg xmlns="http://www.w3.org/2000/svg" fill="#FFFFFF" viewBox="0 0 700 700">
    <polygon points="193,265 212,291 176,319 194,348 230,319 248,343 386,241 316,616 442,618 467,466 574,467 590,373 485,371 508,262 565,343 599,316 619,343 654,317 635,292 673,265 581,132 546,159 490,80 386,161 368,134 193,264"/>
    <polygon points="360,280 335,299 358,302"/>
    <polygon points="95,210 236,211 222,224"/>
    <polygon points="83,271 177,272 186,283"/>
    <polygon points="72,333 169,333 178,346"/>
    <polygon points="226,344 216,350 234,352"/>
    <polygon points="292,334 265,355 344,365 351,335"/>
    <polygon points="60,395 339,396 335,427"/>
    <polygon points="48,457 328,459 323,489"/>
    <polygon points="38,519 316,521 311,550"/>
    <polygon points="25,581 304,584 300,612"/>
</svg>
